<?xml version="1.0" encoding="utf-8"?>
<svg viewBox="0 0 500 500" xmlns="http://www.w3.org/2000/svg">
  <path fill="var(--base01)" id="CA-ON" d="M 297.134 492.069 C 298.471 489.483 300.216 488.344 303.737 487.755 C 306.37 487.314 309.253 486.483 310.145 485.905 C 312.491 484.388 313.703 475.589 311.732 474.372 C 310.623 473.686 310.52 472.693 311.382 471.029 C 312.055 469.726 312.988 466.548 313.454 463.966 C 313.92 461.385 315.335 458.546 316.601 457.658 C 321.147 454.468 325.11 447.113 324.688 442.649 C 324.466 440.303 324.195 433.776 324.087 428.145 C 323.9 418.558 324.176 417.389 328.42 409.8 L 332.954 401.693 L 330.694 396.7 C 329.451 393.953 327.218 390.626 325.733 389.303 C 323.098 386.96 322.064 383.507 323.998 383.507 C 324.529 383.507 328.289 386.896 332.351 391.038 C 339.06 397.878 345.881 402.28 352.678 404.154 C 359.587 406.062 363.395 394.468 358.288 387.072 C 354.954 382.24 341.213 367.331 337.667 364.697 C 336.35 363.718 331.525 362.487 326.944 361.961 C 322.363 361.434 315.512 360.107 311.718 359.009 C 306.822 357.594 299.427 357.015 286.243 357.015 C 268.916 357.015 267.545 356.84 265.847 354.416 C 264.845 352.986 261.03 350.269 257.368 348.377 C 251.958 345.581 250.682 344.302 250.562 341.556 C 250.48 339.696 248.781 336.469 246.784 334.386 C 243.67 331.135 243.451 330.483 245.247 329.794 C 248.044 328.721 247.885 326.002 244.77 321.627 C 243.357 319.643 241.092 315.513 239.737 312.45 C 237.581 307.574 236.67 306.784 232.427 306.105 C 227.581 305.331 214.174 298.921 210.919 295.823 C 209.97 294.918 209.045 291.995 208.863 289.327 C 208.683 286.66 208.104 282.846 207.576 280.853 L 206.619 277.229 L 196.433 277.896 C 186.993 278.516 185.712 278.294 178.95 274.88 L 171.652 271.196 L 166.447 274.481 C 161.711 277.471 161.422 277.945 163.23 279.754 C 165.037 281.562 164.456 282.236 156.763 287.25 C 152.113 290.281 146.255 294.957 143.743 297.642 C 138.635 303.102 138.026 303.166 119.925 300.181 C 114.721 299.322 106.444 298.508 101.533 298.371 C 93.067 298.134 84.602 295.151 84.602 292.405 C 84.602 291.86 83.145 291.415 81.364 291.415 C 79.393 291.415 76.306 289.692 73.479 287.011 C 68.867 282.64 68.747 282.607 57.253 282.595 C 48.915 282.588 45.17 282.081 43.874 280.784 C 42.882 279.792 39.862 278.584 37.16 278.096 C 30.217 276.843 29.486 275.913 28.522 267.095 C 27.736 259.898 27.331 259.078 23.649 257.223 C 19.788 255.281 19.638 254.912 19.767 247.762 C 19.912 239.7 21.409 205.88 22.164 193.646 C 22.42 189.483 22.993 177.056 23.435 166.03 C 24.448 140.858 22.271 144.811 52.347 113.539 C 58.686 106.947 67.544 97.358 72.03 92.23 C 76.516 87.102 80.773 82.277 81.492 81.507 C 82.21 80.737 89.586 72.16 97.885 62.447 C 106.182 52.733 115.812 41.643 119.285 37.801 C 136.296 18.992 143.904 10.45 146.212 7.57 L 148.74 4.416 L 152.939 6.798 C 158.091 9.719 166.602 17.671 166.602 19.563 C 166.602 20.328 168.468 22.761 170.75 24.973 C 173.813 27.942 176.864 29.372 182.419 30.441 C 187.605 31.441 191.121 32.999 193.746 35.462 C 197.357 38.851 200.547 40.064 206.403 40.276 C 207.826 40.328 212.084 43.122 215.865 46.486 L 222.74 52.602 L 246.379 53.391 C 266.969 54.079 270.69 54.524 275.232 56.842 L 280.448 59.502 L 279.591 70.436 C 279.12 76.45 278.247 81.862 277.652 82.462 C 277.048 83.071 277.621 85.283 278.949 87.467 C 280.257 89.619 281.679 93.953 282.108 97.098 C 283.482 107.189 283.696 108.231 284.883 110.59 C 285.525 111.866 285.871 115.519 285.653 118.708 C 285.332 123.394 285.977 125.647 289.006 130.423 C 293.874 138.101 309.045 156.431 310.53 156.431 C 313.415 156.431 321.469 166.845 323.732 173.501 L 326.164 180.66 L 333.964 180.072 L 341.764 179.485 L 342.564 185.934 C 343.828 196.132 344.349 200.721 345.09 208.154 C 345.47 211.97 346.027 216.511 346.327 218.246 C 346.628 219.98 347.217 224.806 347.636 228.969 C 348.056 233.132 348.607 237.957 348.861 239.692 C 349.469 243.839 350.657 253.898 351.468 261.769 C 351.825 265.238 352.365 270.063 352.668 272.492 C 354.561 287.683 355.79 298.021 356.474 304.517 C 356.904 308.601 358.96 315.754 361.043 320.412 C 364.239 327.558 365.978 329.692 372.159 334.051 C 380.309 339.8 391.696 343.839 403.139 345.04 C 408.373 345.59 412.494 346.975 416.495 349.532 C 419.678 351.566 423.368 353.243 424.695 353.258 C 426.041 353.273 428.634 355.443 430.559 358.165 L 434.01 363.046 L 444.904 362.445 C 454.339 361.926 456.864 361.26 463.757 357.47 C 471.739 353.084 478.116 351.074 478.296 352.891 C 478.488 354.821 479.21 358.019 480.051 360.669 C 480.726 362.796 479.882 364.243 476.1 367.447 C 468.222 374.125 461.679 381.058 452.339 392.635 C 447.482 398.654 442.939 403.623 442.247 403.677 C 440.12 403.844 435.074 408.599 435.792 409.76 C 437.257 412.135 427.146 415.971 418.765 416.221 C 403.707 416.669 382.015 425.591 377.389 433.24 C 372.806 440.821 372.842 442.656 377.616 444.651 C 379.986 445.641 383.029 446.163 384.378 445.81 C 386.233 445.326 387.337 446.235 388.921 449.554 C 391.374 454.7 390.537 455.414 382.063 455.414 C 376.955 455.414 363.174 460.617 359.616 463.888 C 357.95 465.419 358.096 465.91 360.846 467.995 L 363.969 470.362 L 360.504 471.231 C 358.6 471.709 354.531 471.468 351.462 470.696 C 339.497 467.684 336.665 469.011 321.769 484.612 C 313.606 493.163 311.702 494.537 307.892 494.631 C 305.464 494.692 301.641 494.93 299.397 495.162 L 295.316 495.584 L 297.134 492.069 Z" />
</svg>