<?xml version="1.0" encoding="utf-8"?>
<svg viewBox="0 0 500 500" xmlns="http://www.w3.org/2000/svg">
  <path className="k" d="M 242.305 356.139 C 246.225 361.299 249.735 365.119 252.835 367.599 C 255.928 370.079 259.645 371.629 263.985 372.249 L 263.985 378.749 C 251.598 377.922 243.235 377.509 238.895 377.509 C 233.322 377.509 221.862 377.922 204.515 378.749 L 204.515 372.249 C 207.408 372.249 209.732 371.679 211.485 370.539 C 213.245 369.406 214.125 368.012 214.125 366.359 C 214.125 364.706 213.505 363.159 212.265 361.719 L 176.645 309.689 C 173.138 304.522 169.785 301.062 166.585 299.309 C 163.385 297.556 158.995 296.472 153.415 296.059 L 153.415 349.949 C 153.415 358.416 154.912 364.249 157.905 367.449 C 160.905 370.649 166.222 372.249 173.855 372.249 L 173.855 378.749 C 156.515 377.922 145.058 377.509 139.485 377.509 C 133.498 377.509 121.005 377.922 102.005 378.749 L 102.005 372.249 C 110.678 372.249 116.772 370.649 120.285 367.449 C 123.792 364.249 125.545 358.416 125.545 349.949 L 125.545 173.109 C 125.545 163.609 123.792 156.692 120.285 152.359 C 116.772 148.026 110.678 145.859 102.005 145.859 L 102.005 139.349 C 108.612 139.969 115.015 140.279 121.215 140.279 C 134.222 140.279 144.955 138.836 153.415 135.949 L 153.415 289.559 C 159.408 288.732 164.415 287.339 168.435 285.379 C 172.462 283.412 176.335 280.572 180.055 276.859 L 202.975 253.009 C 209.582 246.196 212.885 240.519 212.885 235.979 C 212.885 232.466 210.768 229.832 206.535 228.079 C 202.302 226.326 196.778 225.449 189.965 225.449 L 189.965 219.249 C 204.418 220.076 216.082 220.489 224.955 220.489 C 234.662 220.489 243.645 220.076 251.905 219.249 L 251.905 225.449 C 241.785 226.276 232.495 231.126 224.035 239.999 L 186.245 279.649 L 242.305 356.139 Z" transform="matrix(1, 0, 0, 1, 0, 0)"/>
  <path className="d" d="M 374.177 344.706 C 374.177 354.206 375.934 361.123 379.447 365.456 C 382.954 369.796 389.044 371.966 397.717 371.966 L 397.717 378.466 C 391.317 377.846 384.917 377.536 378.517 377.536 C 365.51 377.536 354.774 378.983 346.307 381.876 L 346.307 354.306 C 342.594 363.599 337.02 370.673 329.587 375.526 C 322.154 380.379 313.067 382.806 302.327 382.806 C 282.507 382.806 266.97 375.683 255.717 361.436 C 244.47 347.189 238.95 326.336 239.157 298.876 C 239.157 280.909 242.304 265.579 248.597 252.886 C 254.897 240.186 263.364 230.636 273.997 224.236 C 284.63 217.836 296.347 214.636 309.147 214.636 C 316.994 214.636 324.167 216.133 330.667 219.126 C 337.174 222.119 342.387 226.713 346.307 232.906 L 346.307 172.826 C 346.307 163.326 344.554 156.409 341.047 152.076 C 337.534 147.743 331.44 145.576 322.767 145.576 L 322.767 139.066 C 329.374 139.686 335.777 139.996 341.977 139.996 C 354.984 139.996 365.717 138.553 374.177 135.666 L 374.177 344.706 Z M 311.317 373.506 C 319.364 373.506 326.587 370.409 332.987 364.216 C 339.394 358.023 343.834 349.249 346.307 337.896 L 346.307 245.606 C 340.734 229.706 329.174 221.756 311.627 221.756 C 298.82 221.756 288.497 228.313 280.657 241.426 C 272.81 254.533 268.99 273.683 269.197 298.876 C 268.99 323.649 272.5 342.283 279.727 354.776 C 286.954 367.263 297.484 373.506 311.317 373.506 Z" transform="matrix(1, 0, 0, 1, 0, 0)" />
  <circle className="circle" cx="250" cy="250.016" r="200.721"/>
</svg>